<svg width="38" height="42" viewBox="0 0 38 42" fill="none" xmlns="http://www.w3.org/2000/svg">
<path d="M36 28.1443V13.2025C35.9993 12.5474 35.8244 11.9041 35.4929 11.3369C35.1614 10.7698 34.6848 10.2989 34.1111 9.97134L20.8889 2.50045C20.3146 2.1726 19.6631 2 19 2C18.3369 2 17.6854 2.1726 17.1111 2.50045L3.88889 9.97134C3.31516 10.2989 2.83863 10.7698 2.50709 11.3369C2.17556 11.9041 2.00068 12.5474 2 13.2025V28.1443C2.00068 28.7993 2.17556 29.4427 2.50709 30.0098C2.83863 30.5769 3.31516 31.0479 3.88889 31.3754L17.1111 38.8463C17.6854 39.1742 18.3369 39.3468 19 39.3468C19.6631 39.3468 20.3146 39.1742 20.8889 38.8463L34.1111 31.3754C34.6848 31.0479 35.1614 30.5769 35.4929 30.0098C35.8244 29.4427 35.9993 28.7993 36 28.1443Z" stroke="white" stroke-width="4" stroke-linecap="round" stroke-linejoin="round"/>
<path d="M2.51001 11.2601L19 20.6921L35.49 11.2601" stroke="white" stroke-width="4" stroke-linecap="round" stroke-linejoin="round"/>
<path d="M19 39.5V20.6734" stroke="white" stroke-width="4" stroke-linecap="round" stroke-linejoin="round"/>
</svg>
