<svg width="42" height="42" viewBox="0 0 42 42" fill="none" xmlns="http://www.w3.org/2000/svg">
<path d="M33.25 39.5C36.7018 39.5 39.5 36.7018 39.5 33.25C39.5 29.7982 36.7018 27 33.25 27C29.7982 27 27 29.7982 27 33.25C27 36.7018 29.7982 39.5 33.25 39.5Z" stroke="white" stroke-width="4" stroke-linecap="round" stroke-linejoin="round"/>
<path d="M8.25 14.5C11.7018 14.5 14.5 11.7018 14.5 8.25C14.5 4.79822 11.7018 2 8.25 2C4.79822 2 2 4.79822 2 8.25C2 11.7018 4.79822 14.5 8.25 14.5Z" stroke="white" stroke-width="4" stroke-linecap="round" stroke-linejoin="round"/>
<path d="M22.8333 8.25H29.0833C30.1884 8.25 31.2482 8.68899 32.0296 9.47039C32.811 10.2518 33.25 11.3116 33.25 12.4167V27" stroke="white" stroke-width="4" stroke-linecap="round" stroke-linejoin="round"/>
<path d="M8.25 14.5V39.5" stroke="white" stroke-width="4" stroke-linecap="round" stroke-linejoin="round"/>
</svg>
