<svg width="21" height="44" viewBox="0 0 21 44" fill="none" xmlns="http://www.w3.org/2000/svg">
<path d="M15.2222 27.0163V6.54511C15.2222 5.33967 14.7247 4.18361 13.8391 3.33123C12.9535 2.47886 11.7524 2 10.5 2C9.24759 2 8.04647 2.47886 7.16088 3.33123C6.2753 4.18361 5.77778 5.33967 5.77778 6.54511V27.0163C4.26152 27.9914 3.11128 29.41 2.49691 31.0625C1.88255 32.7151 1.83665 34.514 2.36599 36.1936C2.89532 37.8732 3.97183 39.3444 5.43653 40.39C6.90122 41.4355 8.67644 42 10.5 42C12.3236 42 14.0988 41.4355 15.5635 40.39C17.0282 39.3444 18.1047 37.8732 18.634 36.1936C19.1634 34.514 19.1174 32.7151 18.5031 31.0625C17.8887 29.41 16.7385 27.9914 15.2222 27.0163Z" stroke="white" stroke-width="4" stroke-linecap="round" stroke-linejoin="round"/>
</svg>
