<svg width="143" height="33" viewBox="0 0 143 33" fill="none" xmlns="http://www.w3.org/2000/svg">
<path fill-rule="evenodd" clip-rule="evenodd" d="M16.5 33C12.1239 33 7.92709 31.2616 4.83274 28.1673C1.73839 25.0729 0 20.8761 0 16.5C0 12.1239 1.73839 7.92709 4.83274 4.83274C7.92709 1.73839 12.1239 0 16.5 0C20.8761 0 25.0729 1.73839 28.1673 4.83274C31.2616 7.92709 33 12.1239 33 16.5C33 20.8761 31.2616 25.0729 28.1673 28.1673C25.0729 31.2616 20.8761 33 16.5 33ZM71.5 33C67.1239 33 62.9271 31.2616 59.8327 28.1673C56.7384 25.0729 55 20.8761 55 16.5C55 12.1239 56.7384 7.92709 59.8327 4.83274C62.9271 1.73839 67.1239 0 71.5 0C75.8761 0 80.0729 1.73839 83.1673 4.83274C86.2616 7.92709 88 12.1239 88 16.5C88 20.8761 86.2616 25.0729 83.1673 28.1673C80.0729 31.2616 75.8761 33 71.5 33ZM126.5 33C122.124 33 117.927 31.2616 114.833 28.1673C111.738 25.0729 110 20.8761 110 16.5C110 12.1239 111.738 7.92709 114.833 4.83274C117.927 1.73839 122.124 0 126.5 0C130.876 0 135.073 1.73839 138.167 4.83274C141.262 7.92709 143 12.1239 143 16.5C143 20.8761 141.262 25.0729 138.167 28.1673C135.073 31.2616 130.876 33 126.5 33Z" fill="#9EDB5C"/>
</svg>
