<svg width="95" height="99" viewBox="0 0 95 99" fill="none" xmlns="http://www.w3.org/2000/svg">
<path fill-rule="evenodd" clip-rule="evenodd" d="M85.5 99C80.2533 99 76 94.5676 76 89.1C76 83.6324 80.2533 79.2 85.5 79.2C90.7467 79.2 95 83.6324 95 89.1C95 94.5676 90.7467 99 85.5 99ZM85.5 59.4C80.2533 59.4 76 54.9676 76 49.5C76 44.0324 80.2533 39.6 85.5 39.6C90.7467 39.6 95 44.0324 95 49.5C95 54.9676 90.7467 59.4 85.5 59.4ZM85.5 19.8C80.2533 19.8 76 15.3676 76 9.9C76 4.43238 80.2533 0 85.5 0C90.7467 0 95 4.43238 95 9.9C95 15.3676 90.7467 19.8 85.5 19.8ZM47.5 99C42.2533 99 38 94.5676 38 89.1C38 83.6324 42.2533 79.2 47.5 79.2C52.7467 79.2 57 83.6324 57 89.1C57 94.5676 52.7467 99 47.5 99ZM47.5 59.4C42.2533 59.4 38 54.9676 38 49.5C38 44.0324 42.2533 39.6 47.5 39.6C52.7467 39.6 57 44.0324 57 49.5C57 54.9676 52.7467 59.4 47.5 59.4ZM47.5 19.8C42.2533 19.8 38 15.3676 38 9.9C38 4.43238 42.2533 0 47.5 0C52.7467 0 57 4.43238 57 9.9C57 15.3676 52.7467 19.8 47.5 19.8ZM9.5 99C4.25329 99 0 94.5676 0 89.1C0 83.6324 4.25329 79.2 9.5 79.2C14.7467 79.2 19 83.6324 19 89.1C19 94.5676 14.7467 99 9.5 99ZM9.5 59.4C4.25329 59.4 0 54.9676 0 49.5C0 44.0324 4.25329 39.6 9.5 39.6C14.7467 39.6 19 44.0324 19 49.5C19 54.9676 14.7467 59.4 9.5 59.4ZM9.5 19.8C4.25329 19.8 0 15.3676 0 9.9C0 4.43238 4.25329 0 9.5 0C14.7467 0 19 4.43238 19 9.9C19 15.3676 14.7467 19.8 9.5 19.8Z" fill="#9EDB5C"/>
</svg>
