<svg width="1440" height="880" viewBox="0 0 1440 880" fill="none" xmlns="http://www.w3.org/2000/svg">
<g clip-path="url(#clip0_9_141)">
<rect width="1440" height="880" fill="#008743"/>
<rect x="-5.88708" y="769" width="1450.84" height="241" fill="white"/>
<path d="M-5.88708 -17C-5.88708 -17 49.1076 123.856 152.248 84.7552C255.389 45.6539 175.489 133.075 247.231 194.469C318.973 255.863 330.664 134.863 416.012 297.118C501.359 459.373 565.522 361.598 695.771 297.118C826.019 232.639 768.118 392.295 930.326 353.455C1092.53 314.615 1164.72 149.56 1228.67 224.848C1292.62 300.137 1337.51 322.373 1401.45 281.185C1433.1 260.796 1445.11 230.891 1449.16 205.888V159.976C1449.16 159.976 1453.3 180.382 1449.16 205.888V531H-5.88708V-17Z" fill="#B2E181" fill-opacity="0.5"/>
<path d="M157.55 300.234C38.0674 199.69 -4.87952 50 -4.87952 50V578H1444.95V447.071C1444.95 447.071 1416.76 507.111 1337.67 500.911C1258.58 494.71 1265.74 404.444 1156.19 462.366C1046.64 520.288 1065.77 554.751 974.943 500.911C884.115 447.071 910.832 447.071 782.202 447.071C653.572 447.071 649.056 242.5 583.677 238.44C518.298 234.381 478.399 447.071 368.608 349.18C258.818 251.289 277.033 400.778 157.55 300.234Z" fill="#88BB68"/>
<path d="M435.007 448.132C224.853 482 -21 362 -21 362V689L708.923 745L1444.95 689V536.266C1444.95 513.033 1282.81 600 1188.19 563.5C1093.57 527 950.635 579.609 874.936 563.5C799.237 547.391 645.161 414.263 435.007 448.132Z" fill="#EAFFD3"/>
<path d="M305.223 637.226C185.599 730.4 -5.88708 637.226 -5.88708 637.226V769H1444.95V637.226C1444.95 637.226 1297.28 732.074 1199.12 688.815C1100.96 645.556 982.499 572.273 841.525 637.226C700.551 702.18 698.854 710.59 605.683 667.331C512.512 624.072 424.847 544.053 305.223 637.226Z" fill="url(#paint0_linear_9_141)"/>
</g>
<defs>
<linearGradient id="paint0_linear_9_141" x1="719.534" y1="605.642" x2="719.534" y2="769" gradientUnits="userSpaceOnUse">
<stop stop-color="#EFFFDE"/>
<stop offset="0.71199" stop-color="white"/>
</linearGradient>
<clipPath id="clip0_9_141">
<rect width="1440" height="880" fill="white"/>
</clipPath>
</defs>
</svg>
