<svg width="23" height="14" viewBox="0 0 23 14" fill="none" xmlns="http://www.w3.org/2000/svg">
<rect width="23" height="14" fill="white"/>
<path d="M0 0H23V1.84211H0V0Z" fill="#D22F27"/>
<path d="M0 3.3158H23V4.78948H0V3.3158Z" fill="#D22F27"/>
<path d="M0 6.26312H23V7.73681H0V6.26312Z" fill="#D22F27"/>
<path d="M0 0H11.871V7.73684H0V0Z" fill="#1E50A0"/>
<path d="M0 9.21054H23V10.6842H0V9.21054Z" fill="#D22F27"/>
<path d="M1.48385 2.48686C1.84239 2.48686 2.13304 2.1982 2.13304 1.84212C2.13304 1.48605 1.84239 1.19739 1.48385 1.19739C1.12531 1.19739 0.834656 1.48605 0.834656 1.84212C0.834656 2.1982 1.12531 2.48686 1.48385 2.48686Z" fill="white"/>
<path d="M4.45162 2.48686C4.81016 2.48686 5.10082 2.1982 5.10082 1.84212C5.10082 1.48605 4.81016 1.19739 4.45162 1.19739C4.09308 1.19739 3.80243 1.48605 3.80243 1.84212C3.80243 2.1982 4.09308 2.48686 4.45162 2.48686Z" fill="white"/>
<path d="M7.4194 2.48686C7.77794 2.48686 8.06859 2.1982 8.06859 1.84212C8.06859 1.48605 7.77794 1.19739 7.4194 1.19739C7.06086 1.19739 6.7702 1.48605 6.7702 1.84212C6.7702 2.1982 7.06086 2.48686 7.4194 2.48686Z" fill="white"/>
<path d="M10.3871 2.48686C10.7456 2.48686 11.0363 2.1982 11.0363 1.84212C11.0363 1.48605 10.7456 1.19739 10.3871 1.19739C10.0286 1.19739 9.73792 1.48605 9.73792 1.84212C9.73792 2.1982 10.0286 2.48686 10.3871 2.48686Z" fill="white"/>
<path d="M8.90322 3.96056C9.26176 3.96056 9.55242 3.6719 9.55242 3.31582C9.55242 2.95974 9.26176 2.67108 8.90322 2.67108C8.54468 2.67108 8.25403 2.95974 8.25403 3.31582C8.25403 3.6719 8.54468 3.96056 8.90322 3.96056Z" fill="white"/>
<path d="M5.93545 3.96056C6.29399 3.96056 6.58464 3.6719 6.58464 3.31582C6.58464 2.95974 6.29399 2.67108 5.93545 2.67108C5.57691 2.67108 5.28625 2.95974 5.28625 3.31582C5.28625 3.6719 5.57691 3.96056 5.93545 3.96056Z" fill="white"/>
<path d="M2.96774 3.96056C3.32628 3.96056 3.61693 3.6719 3.61693 3.31582C3.61693 2.95974 3.32628 2.67108 2.96774 2.67108C2.6092 2.67108 2.31854 2.95974 2.31854 3.31582C2.31854 3.6719 2.6092 3.96056 2.96774 3.96056Z" fill="white"/>
<path d="M1.48385 5.43419C1.84239 5.43419 2.13304 5.14553 2.13304 4.78945C2.13304 4.43337 1.84239 4.14471 1.48385 4.14471C1.12531 4.14471 0.834656 4.43337 0.834656 4.78945C0.834656 5.14553 1.12531 5.43419 1.48385 5.43419Z" fill="white"/>
<path d="M4.45162 5.43419C4.81016 5.43419 5.10082 5.14553 5.10082 4.78945C5.10082 4.43337 4.81016 4.14471 4.45162 4.14471C4.09308 4.14471 3.80243 4.43337 3.80243 4.78945C3.80243 5.14553 4.09308 5.43419 4.45162 5.43419Z" fill="white"/>
<path d="M7.4194 5.43419C7.77794 5.43419 8.06859 5.14553 8.06859 4.78945C8.06859 4.43337 7.77794 4.14471 7.4194 4.14471C7.06086 4.14471 6.7702 4.43337 6.7702 4.78945C6.7702 5.14553 7.06086 5.43419 7.4194 5.43419Z" fill="white"/>
<path d="M10.3871 5.43419C10.7456 5.43419 11.0363 5.14553 11.0363 4.78945C11.0363 4.43337 10.7456 4.14471 10.3871 4.14471C10.0286 4.14471 9.73792 4.43337 9.73792 4.78945C9.73792 5.14553 10.0286 5.43419 10.3871 5.43419Z" fill="white"/>
<path d="M8.90322 6.90788C9.26176 6.90788 9.55242 6.61922 9.55242 6.26315C9.55242 5.90707 9.26176 5.61841 8.90322 5.61841C8.54468 5.61841 8.25403 5.90707 8.25403 6.26315C8.25403 6.61922 8.54468 6.90788 8.90322 6.90788Z" fill="white"/>
<path d="M5.93545 6.90788C6.29399 6.90788 6.58464 6.61922 6.58464 6.26315C6.58464 5.90707 6.29399 5.61841 5.93545 5.61841C5.57691 5.61841 5.28625 5.90707 5.28625 6.26315C5.28625 6.61922 5.57691 6.90788 5.93545 6.90788Z" fill="white"/>
<path d="M2.96774 6.90788C3.32628 6.90788 3.61693 6.61922 3.61693 6.26315C3.61693 5.90707 3.32628 5.61841 2.96774 5.61841C2.6092 5.61841 2.31854 5.90707 2.31854 6.26315C2.31854 6.61922 2.6092 6.90788 2.96774 6.90788Z" fill="white"/>
<path d="M0 12.1579H23V14H0V12.1579Z" fill="#D22F27"/>
</svg>
