<svg width="1440" height="880" viewBox="0 0 1440 880" fill="none" xmlns="http://www.w3.org/2000/svg">
<g clip-path="url(#clip0_9_141)">
<rect width="1440" height="880" fill="#008743"/>
<path d="M0 94C0 94 54.5838 234.856 156.954 195.755C259.324 156.654 180.02 244.075 251.226 305.469C322.432 366.863 334.036 245.863 418.746 408.118C503.455 570.373 567.139 472.598 696.414 408.118C825.689 343.639 768.221 503.295 929.217 464.455C1090.21 425.615 1161.86 260.56 1225.33 335.848C1288.8 411.137 1333.35 433.373 1396.82 392.185C1428.23 371.796 1440.15 341.891 1444.17 316.888V270.976C1444.17 270.976 1448.28 291.382 1444.17 316.888V642H0V94Z" fill="#B2E181" fill-opacity="0.5"/>
<path d="M162.216 411.234C43.626 310.69 1 161 1 161V689H1440V558.071C1440 558.071 1412.02 618.111 1333.52 611.911C1255.02 605.71 1262.12 515.444 1153.39 573.366C1044.66 631.288 1063.65 665.751 973.5 611.911C883.351 558.071 909.868 558.071 782.2 558.071C654.531 558.071 650.049 353.5 585.158 349.44C520.268 345.381 480.667 558.071 371.697 460.18C262.727 362.289 280.806 511.778 162.216 411.234Z" fill="#88BB68"/>
<path d="M437.599 559.132C229.016 593 -15 473 -15 473V800L709.469 856L1440 800V647.266C1440 624.033 1279.07 711 1185.15 674.5C1091.24 638 949.374 690.609 874.241 674.5C799.107 658.391 646.183 525.263 437.599 559.132Z" fill="#EAFFD3"/>
<path d="M308.786 748.277C190.056 841.816 0 748.277 0 748.277V880.568H1440V748.277C1440 748.277 1293.43 843.497 1196 800.068C1098.57 756.639 981 683.068 841.08 748.277C701.159 813.486 699.474 821.929 607 778.5C514.526 735.071 427.516 654.737 308.786 748.277Z" fill="url(#paint0_linear_9_141)"/>
</g>
<defs>
<linearGradient id="paint0_linear_9_141" x1="720" y1="716.568" x2="720" y2="880.568" gradientUnits="userSpaceOnUse">
<stop stop-color="#EFFFDE"/>
<stop offset="0.71199" stop-color="white"/>
</linearGradient>
<clipPath id="clip0_9_141">
<rect width="1440" height="880" fill="white"/>
</clipPath>
</defs>
</svg>
